{
	"asset":{
		"generator":"Khronos glTF Blender I/O v5.0.21",
		"version":"2.0"
	},
	"scene":0,
	"scenes":[
		{
			"name":"Scene",
			"nodes":[
				0
			]
		}
	],
	"nodes":[
		{
			"mesh":0,
			"name":"Barrel.009"
		}
	],
	"materials":[
		{
			"doubleSided":true,
			"name":"ColorAtlas",
			"pbrMetallicRoughness":{
				"baseColorTexture":{
					"index":0
				},
				"metallicFactor":0,
				"roughnessFactor":0.5
			}
		}
	],
	"meshes":[
		{
			"name":"__EXPORT_MESH__Barrel.009",
			"primitives":[
				{
					"attributes":{
						"POSITION":0,
						"NORMAL":1,
						"TEXCOORD_0":2,
						"TANGENT":3
					},
					"indices":4,
					"material":0
				}
			]
		}
	],
	"textures":[
		{
			"sampler":0,
			"source":0
		}
	],
	"images":[
		{
			"mimeType":"image/png",
			"name":"ColorAtlas",
			"uri":"textures/ColorAtlas.png"
		}
	],
	"accessors":[
		{
			"bufferView":0,
			"componentType":5126,
			"count":676,
			"max":[
				0.5193694829940796,
				1.2000001668930054,
				0.5193687677383423
			],
			"min":[
				-0.5193692445755005,
				8.754432201385498e-08,
				-0.5193696618080139
			],
			"type":"VEC3"
		},
		{
			"bufferView":1,
			"componentType":5126,
			"count":676,
			"type":"VEC3"
		},
		{
			"bufferView":2,
			"componentType":5126,
			"count":676,
			"type":"VEC2"
		},
		{
			"bufferView":3,
			"componentType":5126,
			"count":676,
			"type":"VEC4"
		},
		{
			"bufferView":4,
			"componentType":5123,
			"count":684,
			"type":"SCALAR"
		}
	],
	"bufferViews":[
		{
			"buffer":0,
			"byteLength":8112,
			"byteOffset":0,
			"target":34962
		},
		{
			"buffer":0,
			"byteLength":8112,
			"byteOffset":8112,
			"target":34962
		},
		{
			"buffer":0,
			"byteLength":5408,
			"byteOffset":16224,
			"target":34962
		},
		{
			"buffer":0,
			"byteLength":10816,
			"byteOffset":21632,
			"target":34962
		},
		{
			"buffer":0,
			"byteLength":1368,
			"byteOffset":32448,
			"target":34963
		}
	],
	"samplers":[
		{
			"magFilter":9729,
			"minFilter":9987
		}
	],
	"buffers":[
		{
			"byteLength":33816,
			"uri":"Barrel.bin"
		}
	]
}
