{
	"asset":{
		"generator":"Khronos glTF Blender I/O v5.0.21",
		"version":"2.0"
	},
	"scene":0,
	"scenes":[
		{
			"name":"Scene",
			"nodes":[
				0
			]
		}
	],
	"nodes":[
		{
			"mesh":0,
			"name":"Basket_S.012"
		}
	],
	"materials":[
		{
			"doubleSided":true,
			"name":"ColorAtlas",
			"pbrMetallicRoughness":{
				"baseColorTexture":{
					"index":0
				},
				"metallicFactor":0,
				"roughnessFactor":0.5
			}
		}
	],
	"meshes":[
		{
			"name":"__EXPORT_MESH__Basket_S.012",
			"primitives":[
				{
					"attributes":{
						"POSITION":0,
						"NORMAL":1,
						"TEXCOORD_0":2,
						"TANGENT":3
					},
					"indices":4,
					"material":0
				}
			]
		}
	],
	"textures":[
		{
			"sampler":0,
			"source":0
		}
	],
	"images":[
		{
			"mimeType":"image/png",
			"name":"ColorAtlas",
			"uri":"textures/ColorAtlas.png"
		}
	],
	"accessors":[
		{
			"bufferView":0,
			"componentType":5126,
			"count":373,
			"max":[
				0.2749999761581421,
				0.19988708198070526,
				0.2749999761581421
			],
			"min":[
				-0.2749999761581421,
				-1.0693554486351786e-08,
				-0.2749999761581421
			],
			"type":"VEC3"
		},
		{
			"bufferView":1,
			"componentType":5126,
			"count":373,
			"type":"VEC3"
		},
		{
			"bufferView":2,
			"componentType":5126,
			"count":373,
			"type":"VEC2"
		},
		{
			"bufferView":3,
			"componentType":5126,
			"count":373,
			"type":"VEC4"
		},
		{
			"bufferView":4,
			"componentType":5123,
			"count":420,
			"type":"SCALAR"
		}
	],
	"bufferViews":[
		{
			"buffer":0,
			"byteLength":4476,
			"byteOffset":0,
			"target":34962
		},
		{
			"buffer":0,
			"byteLength":4476,
			"byteOffset":4476,
			"target":34962
		},
		{
			"buffer":0,
			"byteLength":2984,
			"byteOffset":8952,
			"target":34962
		},
		{
			"buffer":0,
			"byteLength":5968,
			"byteOffset":11936,
			"target":34962
		},
		{
			"buffer":0,
			"byteLength":840,
			"byteOffset":17904,
			"target":34963
		}
	],
	"samplers":[
		{
			"magFilter":9729,
			"minFilter":9987
		}
	],
	"buffers":[
		{
			"byteLength":18744,
			"uri":"Basket_S.bin"
		}
	]
}
