{
	"asset":{
		"generator":"Khronos glTF Blender I/O v5.0.21",
		"version":"2.0"
	},
	"scene":0,
	"scenes":[
		{
			"name":"Scene",
			"nodes":[
				2
			]
		}
	],
	"nodes":[
		{
			"mesh":0,
			"name":"CeremicPot_Body.002",
			"translation":[
				0,
				0,
				2.212779918409069e-06
			]
		},
		{
			"mesh":1,
			"name":"CeremicPot_Lid.002",
			"translation":[
				-7.983693649293855e-06,
				0.4334716796875,
				2.2127801457827445e-06
			]
		},
		{
			"children":[
				0,
				1
			],
			"name":"CeremicPot.002"
		}
	],
	"materials":[
		{
			"doubleSided":true,
			"name":"ColorAtlas",
			"pbrMetallicRoughness":{
				"baseColorTexture":{
					"index":0
				},
				"metallicFactor":0,
				"roughnessFactor":0.5
			}
		}
	],
	"meshes":[
		{
			"name":"__EXPORT_MESH__CeremicPot_Body.002",
			"primitives":[
				{
					"attributes":{
						"POSITION":0,
						"NORMAL":1,
						"TEXCOORD_0":2,
						"TANGENT":3
					},
					"indices":4,
					"material":0
				}
			]
		},
		{
			"name":"__EXPORT_MESH__CeremicPot_Lid.002",
			"primitives":[
				{
					"attributes":{
						"POSITION":5,
						"NORMAL":6,
						"TEXCOORD_0":7,
						"TANGENT":8
					},
					"indices":9,
					"material":0
				}
			]
		}
	],
	"textures":[
		{
			"sampler":0,
			"source":0
		}
	],
	"images":[
		{
			"mimeType":"image/png",
			"name":"ColorAtlas",
			"uri":"textures/ColorAtlas.png"
		}
	],
	"accessors":[
		{
			"bufferView":0,
			"componentType":5126,
			"count":176,
			"max":[
				0.25484633445739746,
				0.40113431215286255,
				0.24473559856414795
			],
			"min":[
				-0.25484633445739746,
				-4.873928673987393e-07,
				-0.24473559856414795
			],
			"type":"VEC3"
		},
		{
			"bufferView":1,
			"componentType":5126,
			"count":176,
			"type":"VEC3"
		},
		{
			"bufferView":2,
			"componentType":5126,
			"count":176,
			"type":"VEC2"
		},
		{
			"bufferView":3,
			"componentType":5126,
			"count":176,
			"type":"VEC4"
		},
		{
			"bufferView":4,
			"componentType":5123,
			"count":516,
			"type":"SCALAR"
		},
		{
			"bufferView":5,
			"componentType":5126,
			"count":120,
			"max":[
				0.20206104218959808,
				0.10200393944978714,
				0.20151223242282867
			],
			"min":[
				-0.20204198360443115,
				-1.7604501408641227e-05,
				-0.20151223242282867
			],
			"type":"VEC3"
		},
		{
			"bufferView":6,
			"componentType":5126,
			"count":120,
			"type":"VEC3"
		},
		{
			"bufferView":7,
			"componentType":5126,
			"count":120,
			"type":"VEC2"
		},
		{
			"bufferView":8,
			"componentType":5126,
			"count":120,
			"type":"VEC4"
		},
		{
			"bufferView":9,
			"componentType":5123,
			"count":372,
			"type":"SCALAR"
		}
	],
	"bufferViews":[
		{
			"buffer":0,
			"byteLength":2112,
			"byteOffset":0,
			"target":34962
		},
		{
			"buffer":0,
			"byteLength":2112,
			"byteOffset":2112,
			"target":34962
		},
		{
			"buffer":0,
			"byteLength":1408,
			"byteOffset":4224,
			"target":34962
		},
		{
			"buffer":0,
			"byteLength":2816,
			"byteOffset":5632,
			"target":34962
		},
		{
			"buffer":0,
			"byteLength":1032,
			"byteOffset":8448,
			"target":34963
		},
		{
			"buffer":0,
			"byteLength":1440,
			"byteOffset":9480,
			"target":34962
		},
		{
			"buffer":0,
			"byteLength":1440,
			"byteOffset":10920,
			"target":34962
		},
		{
			"buffer":0,
			"byteLength":960,
			"byteOffset":12360,
			"target":34962
		},
		{
			"buffer":0,
			"byteLength":1920,
			"byteOffset":13320,
			"target":34962
		},
		{
			"buffer":0,
			"byteLength":744,
			"byteOffset":15240,
			"target":34963
		}
	],
	"samplers":[
		{
			"magFilter":9729,
			"minFilter":9987
		}
	],
	"buffers":[
		{
			"byteLength":15984,
			"uri":"CeremicPot.bin"
		}
	]
}
