{
	"asset":{
		"generator":"Khronos glTF Blender I/O v5.0.21",
		"version":"2.0"
	},
	"scene":0,
	"scenes":[
		{
			"name":"Scene",
			"nodes":[
				0
			]
		}
	],
	"nodes":[
		{
			"mesh":0,
			"name":"Corn.022"
		}
	],
	"materials":[
		{
			"doubleSided":true,
			"name":"ColorAtlas",
			"pbrMetallicRoughness":{
				"baseColorTexture":{
					"index":0
				},
				"metallicFactor":0,
				"roughnessFactor":0.5
			}
		}
	],
	"meshes":[
		{
			"name":"__EXPORT_MESH__Corn.022",
			"primitives":[
				{
					"attributes":{
						"POSITION":0,
						"NORMAL":1,
						"TEXCOORD_0":2,
						"TANGENT":3
					},
					"indices":4,
					"material":0
				}
			]
		}
	],
	"textures":[
		{
			"sampler":0,
			"source":0
		}
	],
	"images":[
		{
			"mimeType":"image/png",
			"name":"ColorAtlas",
			"uri":"textures/ColorAtlas.png"
		}
	],
	"accessors":[
		{
			"bufferView":0,
			"componentType":5126,
			"count":413,
			"max":[
				0.07825721800327301,
				0.3200559914112091,
				0.07691619545221329
			],
			"min":[
				-0.08154190331697464,
				3.027195418781048e-07,
				-0.08385088294744492
			],
			"type":"VEC3"
		},
		{
			"bufferView":1,
			"componentType":5126,
			"count":413,
			"type":"VEC3"
		},
		{
			"bufferView":2,
			"componentType":5126,
			"count":413,
			"type":"VEC2"
		},
		{
			"bufferView":3,
			"componentType":5126,
			"count":413,
			"type":"VEC4"
		},
		{
			"bufferView":4,
			"componentType":5123,
			"count":444,
			"type":"SCALAR"
		}
	],
	"bufferViews":[
		{
			"buffer":0,
			"byteLength":4956,
			"byteOffset":0,
			"target":34962
		},
		{
			"buffer":0,
			"byteLength":4956,
			"byteOffset":4956,
			"target":34962
		},
		{
			"buffer":0,
			"byteLength":3304,
			"byteOffset":9912,
			"target":34962
		},
		{
			"buffer":0,
			"byteLength":6608,
			"byteOffset":13216,
			"target":34962
		},
		{
			"buffer":0,
			"byteLength":888,
			"byteOffset":19824,
			"target":34963
		}
	],
	"samplers":[
		{
			"magFilter":9729,
			"minFilter":9987
		}
	],
	"buffers":[
		{
			"byteLength":20712,
			"uri":"Corn.bin"
		}
	]
}
