{
	"asset":{
		"generator":"Khronos glTF Blender I/O v5.0.21",
		"version":"2.0"
	},
	"scene":0,
	"scenes":[
		{
			"name":"Scene",
			"nodes":[
				0
			]
		}
	],
	"nodes":[
		{
			"mesh":0,
			"name":"House_4x5.003"
		}
	],
	"materials":[
		{
			"doubleSided":true,
			"name":"ColorAtlas",
			"pbrMetallicRoughness":{
				"baseColorTexture":{
					"index":0
				},
				"metallicFactor":0,
				"roughnessFactor":0.5
			}
		}
	],
	"meshes":[
		{
			"name":"__EXPORT_MESH__House_4x5.003",
			"primitives":[
				{
					"attributes":{
						"POSITION":0,
						"NORMAL":1,
						"TEXCOORD_0":2,
						"TANGENT":3
					},
					"indices":4,
					"material":0
				}
			]
		}
	],
	"textures":[
		{
			"sampler":0,
			"source":0
		}
	],
	"images":[
		{
			"mimeType":"image/png",
			"name":"ColorAtlas",
			"uri":"textures/ColorAtlas.png"
		}
	],
	"accessors":[
		{
			"bufferView":0,
			"componentType":5126,
			"count":4408,
			"max":[
				2.7684309482574463,
				4.784714698791504,
				3.391345977783203
			],
			"min":[
				-2.748035430908203,
				-5.340576171875e-05,
				-2.954043388366699
			],
			"type":"VEC3"
		},
		{
			"bufferView":1,
			"componentType":5126,
			"count":4408,
			"type":"VEC3"
		},
		{
			"bufferView":2,
			"componentType":5126,
			"count":4408,
			"type":"VEC2"
		},
		{
			"bufferView":3,
			"componentType":5126,
			"count":4408,
			"type":"VEC4"
		},
		{
			"bufferView":4,
			"componentType":5123,
			"count":4932,
			"type":"SCALAR"
		}
	],
	"bufferViews":[
		{
			"buffer":0,
			"byteLength":52896,
			"byteOffset":0,
			"target":34962
		},
		{
			"buffer":0,
			"byteLength":52896,
			"byteOffset":52896,
			"target":34962
		},
		{
			"buffer":0,
			"byteLength":35264,
			"byteOffset":105792,
			"target":34962
		},
		{
			"buffer":0,
			"byteLength":70528,
			"byteOffset":141056,
			"target":34962
		},
		{
			"buffer":0,
			"byteLength":9864,
			"byteOffset":211584,
			"target":34963
		}
	],
	"samplers":[
		{
			"magFilter":9729,
			"minFilter":9987
		}
	],
	"buffers":[
		{
			"byteLength":221448,
			"uri":"House_4x5.bin"
		}
	]
}
