{
	"asset":{
		"generator":"Khronos glTF Blender I/O v5.0.21",
		"version":"2.0"
	},
	"scene":0,
	"scenes":[
		{
			"name":"Scene",
			"nodes":[
				0
			]
		}
	],
	"nodes":[
		{
			"mesh":0,
			"name":"Log_Cluster.003"
		}
	],
	"materials":[
		{
			"doubleSided":true,
			"name":"ColorAtlas",
			"pbrMetallicRoughness":{
				"baseColorTexture":{
					"index":0
				},
				"metallicFactor":0,
				"roughnessFactor":0.5
			}
		}
	],
	"meshes":[
		{
			"name":"__EXPORT_MESH__Log_Cluster.003",
			"primitives":[
				{
					"attributes":{
						"POSITION":0,
						"NORMAL":1,
						"TEXCOORD_0":2,
						"TANGENT":3
					},
					"indices":4,
					"material":0
				}
			]
		}
	],
	"textures":[
		{
			"sampler":0,
			"source":0
		}
	],
	"images":[
		{
			"mimeType":"image/png",
			"name":"ColorAtlas",
			"uri":"textures/ColorAtlas.png"
		}
	],
	"accessors":[
		{
			"bufferView":0,
			"componentType":5126,
			"count":859,
			"max":[
				0.5635432600975037,
				0.6714459657669067,
				0.4222639799118042
			],
			"min":[
				-0.569882333278656,
				-0.012679245322942734,
				-0.42237675189971924
			],
			"type":"VEC3"
		},
		{
			"bufferView":1,
			"componentType":5126,
			"count":859,
			"type":"VEC3"
		},
		{
			"bufferView":2,
			"componentType":5126,
			"count":859,
			"type":"VEC2"
		},
		{
			"bufferView":3,
			"componentType":5126,
			"count":859,
			"type":"VEC4"
		},
		{
			"bufferView":4,
			"componentType":5123,
			"count":1395,
			"type":"SCALAR"
		}
	],
	"bufferViews":[
		{
			"buffer":0,
			"byteLength":10308,
			"byteOffset":0,
			"target":34962
		},
		{
			"buffer":0,
			"byteLength":10308,
			"byteOffset":10308,
			"target":34962
		},
		{
			"buffer":0,
			"byteLength":6872,
			"byteOffset":20616,
			"target":34962
		},
		{
			"buffer":0,
			"byteLength":13744,
			"byteOffset":27488,
			"target":34962
		},
		{
			"buffer":0,
			"byteLength":2790,
			"byteOffset":41232,
			"target":34963
		}
	],
	"samplers":[
		{
			"magFilter":9729,
			"minFilter":9987
		}
	],
	"buffers":[
		{
			"byteLength":44024,
			"uri":"Log_Cluster.bin"
		}
	]
}
