{
	"asset":{
		"generator":"Khronos glTF Blender I/O v5.0.21",
		"version":"2.0"
	},
	"scene":0,
	"scenes":[
		{
			"name":"Scene",
			"nodes":[
				0
			]
		}
	],
	"nodes":[
		{
			"mesh":0,
			"name":"LogStorage.002"
		}
	],
	"materials":[
		{
			"doubleSided":true,
			"name":"ColorAtlas",
			"pbrMetallicRoughness":{
				"baseColorTexture":{
					"index":0
				},
				"metallicFactor":0,
				"roughnessFactor":0.5
			}
		}
	],
	"meshes":[
		{
			"name":"__EXPORT_MESH__LogStorage.002",
			"primitives":[
				{
					"attributes":{
						"POSITION":0,
						"NORMAL":1,
						"TEXCOORD_0":2,
						"TANGENT":3
					},
					"indices":4,
					"material":0
				}
			]
		}
	],
	"textures":[
		{
			"sampler":0,
			"source":0
		}
	],
	"images":[
		{
			"mimeType":"image/png",
			"name":"ColorAtlas",
			"uri":"textures/ColorAtlas.png"
		}
	],
	"accessors":[
		{
			"bufferView":0,
			"componentType":5126,
			"count":412,
			"max":[
				0.9804293513298035,
				1.4987735748291016,
				0.6801765561103821
			],
			"min":[
				-0.9179505109786987,
				-0.0012264424003660679,
				-0.3855589032173157
			],
			"type":"VEC3"
		},
		{
			"bufferView":1,
			"componentType":5126,
			"count":412,
			"type":"VEC3"
		},
		{
			"bufferView":2,
			"componentType":5126,
			"count":412,
			"type":"VEC2"
		},
		{
			"bufferView":3,
			"componentType":5126,
			"count":412,
			"type":"VEC4"
		},
		{
			"bufferView":4,
			"componentType":5123,
			"count":516,
			"type":"SCALAR"
		}
	],
	"bufferViews":[
		{
			"buffer":0,
			"byteLength":4944,
			"byteOffset":0,
			"target":34962
		},
		{
			"buffer":0,
			"byteLength":4944,
			"byteOffset":4944,
			"target":34962
		},
		{
			"buffer":0,
			"byteLength":3296,
			"byteOffset":9888,
			"target":34962
		},
		{
			"buffer":0,
			"byteLength":6592,
			"byteOffset":13184,
			"target":34962
		},
		{
			"buffer":0,
			"byteLength":1032,
			"byteOffset":19776,
			"target":34963
		}
	],
	"samplers":[
		{
			"magFilter":9729,
			"minFilter":9987
		}
	],
	"buffers":[
		{
			"byteLength":20808,
			"uri":"LogStorage.bin"
		}
	]
}
