{
	"asset":{
		"generator":"Khronos glTF Blender I/O v5.0.21",
		"version":"2.0"
	},
	"scene":0,
	"scenes":[
		{
			"name":"Scene",
			"nodes":[
				0
			]
		}
	],
	"nodes":[
		{
			"mesh":0,
			"name":"MarketStall_Table_SideTiered.001"
		}
	],
	"materials":[
		{
			"doubleSided":true,
			"name":"ColorAtlas",
			"pbrMetallicRoughness":{
				"baseColorTexture":{
					"index":0
				},
				"metallicFactor":0,
				"roughnessFactor":0.5
			}
		}
	],
	"meshes":[
		{
			"name":"__EXPORT_MESH__MarketStall_Table_SideTiered.001",
			"primitives":[
				{
					"attributes":{
						"POSITION":0,
						"NORMAL":1,
						"TEXCOORD_0":2,
						"TANGENT":3
					},
					"indices":4,
					"material":0
				}
			]
		}
	],
	"textures":[
		{
			"sampler":0,
			"source":0
		}
	],
	"images":[
		{
			"mimeType":"image/png",
			"name":"ColorAtlas",
			"uri":"textures/ColorAtlas.png"
		}
	],
	"accessors":[
		{
			"bufferView":0,
			"componentType":5126,
			"count":374,
			"max":[
				1,
				0.6999999284744263,
				0.5
			],
			"min":[
				-1,
				-9.105383469432127e-08,
				-0.5
			],
			"type":"VEC3"
		},
		{
			"bufferView":1,
			"componentType":5126,
			"count":374,
			"type":"VEC3"
		},
		{
			"bufferView":2,
			"componentType":5126,
			"count":374,
			"type":"VEC2"
		},
		{
			"bufferView":3,
			"componentType":5126,
			"count":374,
			"type":"VEC4"
		},
		{
			"bufferView":4,
			"componentType":5123,
			"count":444,
			"type":"SCALAR"
		}
	],
	"bufferViews":[
		{
			"buffer":0,
			"byteLength":4488,
			"byteOffset":0,
			"target":34962
		},
		{
			"buffer":0,
			"byteLength":4488,
			"byteOffset":4488,
			"target":34962
		},
		{
			"buffer":0,
			"byteLength":2992,
			"byteOffset":8976,
			"target":34962
		},
		{
			"buffer":0,
			"byteLength":5984,
			"byteOffset":11968,
			"target":34962
		},
		{
			"buffer":0,
			"byteLength":888,
			"byteOffset":17952,
			"target":34963
		}
	],
	"samplers":[
		{
			"magFilter":9729,
			"minFilter":9987
		}
	],
	"buffers":[
		{
			"byteLength":18840,
			"uri":"MarketStall_Table_SideTiered.bin"
		}
	]
}
