{
	"asset":{
		"generator":"Khronos glTF Blender I/O v5.0.21",
		"version":"2.0"
	},
	"scene":0,
	"scenes":[
		{
			"name":"Scene",
			"nodes":[
				0
			]
		}
	],
	"nodes":[
		{
			"mesh":0,
			"name":"MarketStall_Table_Flat.002"
		}
	],
	"materials":[
		{
			"doubleSided":true,
			"name":"ColorAtlas",
			"pbrMetallicRoughness":{
				"baseColorTexture":{
					"index":0
				},
				"metallicFactor":0,
				"roughnessFactor":0.5
			}
		}
	],
	"meshes":[
		{
			"name":"__EXPORT_MESH__MarketStall_Table_Flat.002",
			"primitives":[
				{
					"attributes":{
						"POSITION":0,
						"NORMAL":1,
						"TEXCOORD_0":2,
						"TANGENT":3
					},
					"indices":4,
					"material":0
				}
			]
		}
	],
	"textures":[
		{
			"sampler":0,
			"source":0
		}
	],
	"images":[
		{
			"mimeType":"image/png",
			"name":"ColorAtlas",
			"uri":"textures/ColorAtlas.png"
		}
	],
	"accessors":[
		{
			"bufferView":0,
			"componentType":5126,
			"count":342,
			"max":[
				0.5,
				0.49999988079071045,
				0.25
			],
			"min":[
				-0.5,
				-8.940696716308594e-08,
				-0.25
			],
			"type":"VEC3"
		},
		{
			"bufferView":1,
			"componentType":5126,
			"count":342,
			"type":"VEC3"
		},
		{
			"bufferView":2,
			"componentType":5126,
			"count":342,
			"type":"VEC2"
		},
		{
			"bufferView":3,
			"componentType":5126,
			"count":342,
			"type":"VEC4"
		},
		{
			"bufferView":4,
			"componentType":5123,
			"count":390,
			"type":"SCALAR"
		}
	],
	"bufferViews":[
		{
			"buffer":0,
			"byteLength":4104,
			"byteOffset":0,
			"target":34962
		},
		{
			"buffer":0,
			"byteLength":4104,
			"byteOffset":4104,
			"target":34962
		},
		{
			"buffer":0,
			"byteLength":2736,
			"byteOffset":8208,
			"target":34962
		},
		{
			"buffer":0,
			"byteLength":5472,
			"byteOffset":10944,
			"target":34962
		},
		{
			"buffer":0,
			"byteLength":780,
			"byteOffset":16416,
			"target":34963
		}
	],
	"samplers":[
		{
			"magFilter":9729,
			"minFilter":9987
		}
	],
	"buffers":[
		{
			"byteLength":17196,
			"uri":"MarketStall_Table_Flat.bin"
		}
	]
}
