{
	"asset":{
		"generator":"Khronos glTF Blender I/O v5.0.21",
		"version":"2.0"
	},
	"scene":0,
	"scenes":[
		{
			"name":"Scene",
			"nodes":[
				0
			]
		}
	],
	"nodes":[
		{
			"mesh":0,
			"name":"Road_Cross.003"
		}
	],
	"materials":[
		{
			"doubleSided":true,
			"name":"ColorAtlas",
			"pbrMetallicRoughness":{
				"baseColorTexture":{
					"index":0
				},
				"metallicFactor":0,
				"roughnessFactor":0.5
			}
		}
	],
	"meshes":[
		{
			"name":"__EXPORT_MESH__Road_Cross.003",
			"primitives":[
				{
					"attributes":{
						"POSITION":0,
						"NORMAL":1,
						"TEXCOORD_0":2,
						"TANGENT":3
					},
					"indices":4,
					"material":0
				}
			]
		}
	],
	"textures":[
		{
			"sampler":0,
			"source":0
		}
	],
	"images":[
		{
			"mimeType":"image/png",
			"name":"ColorAtlas",
			"uri":"textures/ColorAtlas.png"
		}
	],
	"accessors":[
		{
			"bufferView":0,
			"componentType":5126,
			"count":426,
			"max":[
				3.7170872688293457,
				0.21540027856826782,
				3.7247936725616455
			],
			"min":[
				-4.083565711975098,
				-0.0004368163936305791,
				-3.7222390174865723
			],
			"type":"VEC3"
		},
		{
			"bufferView":1,
			"componentType":5126,
			"count":426,
			"type":"VEC3"
		},
		{
			"bufferView":2,
			"componentType":5126,
			"count":426,
			"type":"VEC2"
		},
		{
			"bufferView":3,
			"componentType":5126,
			"count":426,
			"type":"VEC4"
		},
		{
			"bufferView":4,
			"componentType":5123,
			"count":426,
			"type":"SCALAR"
		}
	],
	"bufferViews":[
		{
			"buffer":0,
			"byteLength":5112,
			"byteOffset":0,
			"target":34962
		},
		{
			"buffer":0,
			"byteLength":5112,
			"byteOffset":5112,
			"target":34962
		},
		{
			"buffer":0,
			"byteLength":3408,
			"byteOffset":10224,
			"target":34962
		},
		{
			"buffer":0,
			"byteLength":6816,
			"byteOffset":13632,
			"target":34962
		},
		{
			"buffer":0,
			"byteLength":852,
			"byteOffset":20448,
			"target":34963
		}
	],
	"samplers":[
		{
			"magFilter":9729,
			"minFilter":9987
		}
	],
	"buffers":[
		{
			"byteLength":21300,
			"uri":"Road_Cross.bin"
		}
	]
}
