{
	"asset":{
		"generator":"Khronos glTF Blender I/O v5.0.21",
		"version":"2.0"
	},
	"scene":0,
	"scenes":[
		{
			"name":"Scene",
			"nodes":[
				0
			]
		}
	],
	"nodes":[
		{
			"mesh":0,
			"name":"Sweets_RiceDumpling_Spring.009"
		}
	],
	"materials":[
		{
			"doubleSided":true,
			"name":"ColorAtlas",
			"pbrMetallicRoughness":{
				"baseColorTexture":{
					"index":0
				},
				"metallicFactor":0,
				"roughnessFactor":0.5
			}
		}
	],
	"meshes":[
		{
			"name":"__EXPORT_MESH__Sweets_RiceDumpling_Spring.009",
			"primitives":[
				{
					"attributes":{
						"POSITION":0,
						"NORMAL":1,
						"TEXCOORD_0":2,
						"TANGENT":3
					},
					"indices":4,
					"material":0
				}
			]
		}
	],
	"textures":[
		{
			"sampler":0,
			"source":0
		}
	],
	"images":[
		{
			"mimeType":"image/png",
			"name":"ColorAtlas",
			"uri":"textures/ColorAtlas.png"
		}
	],
	"accessors":[
		{
			"bufferView":0,
			"componentType":5126,
			"count":79,
			"max":[
				0.04524388164281845,
				0.20283418893814087,
				0.05487438663840294
			],
			"min":[
				-0.04160815477371216,
				-0.20283418893814087,
				-0.05033104121685028
			],
			"type":"VEC3"
		},
		{
			"bufferView":1,
			"componentType":5126,
			"count":79,
			"type":"VEC3"
		},
		{
			"bufferView":2,
			"componentType":5126,
			"count":79,
			"type":"VEC2"
		},
		{
			"bufferView":3,
			"componentType":5126,
			"count":79,
			"type":"VEC4"
		},
		{
			"bufferView":4,
			"componentType":5123,
			"count":216,
			"type":"SCALAR"
		}
	],
	"bufferViews":[
		{
			"buffer":0,
			"byteLength":948,
			"byteOffset":0,
			"target":34962
		},
		{
			"buffer":0,
			"byteLength":948,
			"byteOffset":948,
			"target":34962
		},
		{
			"buffer":0,
			"byteLength":632,
			"byteOffset":1896,
			"target":34962
		},
		{
			"buffer":0,
			"byteLength":1264,
			"byteOffset":2528,
			"target":34962
		},
		{
			"buffer":0,
			"byteLength":432,
			"byteOffset":3792,
			"target":34963
		}
	],
	"samplers":[
		{
			"magFilter":9729,
			"minFilter":9987
		}
	],
	"buffers":[
		{
			"byteLength":4224,
			"uri":"Sweets_RiceDumpling_Spring.bin"
		}
	]
}
