{
	"asset":{
		"generator":"Khronos glTF Blender I/O v5.0.21",
		"version":"2.0"
	},
	"scene":0,
	"scenes":[
		{
			"name":"Scene",
			"nodes":[
				0
			]
		}
	],
	"nodes":[
		{
			"mesh":0,
			"name":"ToriGate.006"
		}
	],
	"materials":[
		{
			"doubleSided":true,
			"name":"ColorAtlas",
			"pbrMetallicRoughness":{
				"baseColorTexture":{
					"index":0
				},
				"metallicFactor":0,
				"roughnessFactor":0.5
			}
		}
	],
	"meshes":[
		{
			"name":"__EXPORT_MESH__ToriGate.006",
			"primitives":[
				{
					"attributes":{
						"POSITION":0,
						"NORMAL":1,
						"TEXCOORD_0":2,
						"TANGENT":3
					},
					"indices":4,
					"material":0
				}
			]
		}
	],
	"textures":[
		{
			"sampler":0,
			"source":0
		}
	],
	"images":[
		{
			"mimeType":"image/png",
			"name":"ColorAtlas",
			"uri":"textures/ColorAtlas.png"
		}
	],
	"accessors":[
		{
			"bufferView":0,
			"componentType":5126,
			"count":1086,
			"max":[
				2.5760109424591064,
				4.278922080993652,
				0.6698330044746399
			],
			"min":[
				-2.5760176181793213,
				0,
				-0.6698339581489563
			],
			"type":"VEC3"
		},
		{
			"bufferView":1,
			"componentType":5126,
			"count":1086,
			"type":"VEC3"
		},
		{
			"bufferView":2,
			"componentType":5126,
			"count":1086,
			"type":"VEC2"
		},
		{
			"bufferView":3,
			"componentType":5126,
			"count":1086,
			"type":"VEC4"
		},
		{
			"bufferView":4,
			"componentType":5123,
			"count":1452,
			"type":"SCALAR"
		}
	],
	"bufferViews":[
		{
			"buffer":0,
			"byteLength":13032,
			"byteOffset":0,
			"target":34962
		},
		{
			"buffer":0,
			"byteLength":13032,
			"byteOffset":13032,
			"target":34962
		},
		{
			"buffer":0,
			"byteLength":8688,
			"byteOffset":26064,
			"target":34962
		},
		{
			"buffer":0,
			"byteLength":17376,
			"byteOffset":34752,
			"target":34962
		},
		{
			"buffer":0,
			"byteLength":2904,
			"byteOffset":52128,
			"target":34963
		}
	],
	"samplers":[
		{
			"magFilter":9729,
			"minFilter":9987
		}
	],
	"buffers":[
		{
			"byteLength":55032,
			"uri":"ToriGate.bin"
		}
	]
}
