{
	"asset":{
		"generator":"Khronos glTF Blender I/O v5.0.21",
		"version":"2.0"
	},
	"scene":0,
	"scenes":[
		{
			"name":"Scene",
			"nodes":[
				0
			]
		}
	],
	"nodes":[
		{
			"mesh":0,
			"name":"WoodenBox_Stack.001"
		}
	],
	"materials":[
		{
			"doubleSided":true,
			"name":"ColorAtlas",
			"pbrMetallicRoughness":{
				"baseColorTexture":{
					"index":0
				},
				"metallicFactor":0,
				"roughnessFactor":0.5
			}
		}
	],
	"meshes":[
		{
			"name":"__EXPORT_MESH__WoodenBox_Stack.001",
			"primitives":[
				{
					"attributes":{
						"POSITION":0,
						"NORMAL":1,
						"TEXCOORD_0":2,
						"TANGENT":3
					},
					"indices":4,
					"material":0
				}
			]
		}
	],
	"textures":[
		{
			"sampler":0,
			"source":0
		}
	],
	"images":[
		{
			"mimeType":"image/png",
			"name":"ColorAtlas",
			"uri":"textures/ColorAtlas.png"
		}
	],
	"accessors":[
		{
			"bufferView":0,
			"componentType":5126,
			"count":1090,
			"max":[
				1.1474934816360474,
				1.7723827362060547,
				0.6345690488815308
			],
			"min":[
				-1.1171064376831055,
				-5.960464477539063e-08,
				-0.7721210718154907
			],
			"type":"VEC3"
		},
		{
			"bufferView":1,
			"componentType":5126,
			"count":1090,
			"type":"VEC3"
		},
		{
			"bufferView":2,
			"componentType":5126,
			"count":1090,
			"type":"VEC2"
		},
		{
			"bufferView":3,
			"componentType":5126,
			"count":1090,
			"type":"VEC4"
		},
		{
			"bufferView":4,
			"componentType":5123,
			"count":1116,
			"type":"SCALAR"
		}
	],
	"bufferViews":[
		{
			"buffer":0,
			"byteLength":13080,
			"byteOffset":0,
			"target":34962
		},
		{
			"buffer":0,
			"byteLength":13080,
			"byteOffset":13080,
			"target":34962
		},
		{
			"buffer":0,
			"byteLength":8720,
			"byteOffset":26160,
			"target":34962
		},
		{
			"buffer":0,
			"byteLength":17440,
			"byteOffset":34880,
			"target":34962
		},
		{
			"buffer":0,
			"byteLength":2232,
			"byteOffset":52320,
			"target":34963
		}
	],
	"samplers":[
		{
			"magFilter":9729,
			"minFilter":9987
		}
	],
	"buffers":[
		{
			"byteLength":54552,
			"uri":"WoodenBox_Stack.bin"
		}
	]
}
