{
	"asset":{
		"generator":"Khronos glTF Blender I/O v5.0.21",
		"version":"2.0"
	},
	"scene":0,
	"scenes":[
		{
			"name":"Scene",
			"nodes":[
				0
			]
		}
	],
	"nodes":[
		{
			"mesh":0,
			"name":"WoodenBox.004"
		}
	],
	"materials":[
		{
			"doubleSided":true,
			"name":"ColorAtlas",
			"pbrMetallicRoughness":{
				"baseColorTexture":{
					"index":0
				},
				"metallicFactor":0,
				"roughnessFactor":0.5
			}
		}
	],
	"meshes":[
		{
			"name":"__EXPORT_MESH__WoodenBox.004",
			"primitives":[
				{
					"attributes":{
						"POSITION":0,
						"NORMAL":1,
						"TEXCOORD_0":2,
						"TANGENT":3
					},
					"indices":4,
					"material":0
				}
			]
		}
	],
	"textures":[
		{
			"sampler":0,
			"source":0
		}
	],
	"images":[
		{
			"mimeType":"image/png",
			"name":"ColorAtlas",
			"uri":"textures/ColorAtlas.png"
		}
	],
	"accessors":[
		{
			"bufferView":0,
			"componentType":5126,
			"count":348,
			"max":[
				0.4713953733444214,
				0.8802371621131897,
				0.4713953733444214
			],
			"min":[
				-0.4713953733444214,
				-5.246622691856828e-08,
				-0.4713953733444214
			],
			"type":"VEC3"
		},
		{
			"bufferView":1,
			"componentType":5126,
			"count":348,
			"type":"VEC3"
		},
		{
			"bufferView":2,
			"componentType":5126,
			"count":348,
			"type":"VEC2"
		},
		{
			"bufferView":3,
			"componentType":5126,
			"count":348,
			"type":"VEC4"
		},
		{
			"bufferView":4,
			"componentType":5123,
			"count":372,
			"type":"SCALAR"
		}
	],
	"bufferViews":[
		{
			"buffer":0,
			"byteLength":4176,
			"byteOffset":0,
			"target":34962
		},
		{
			"buffer":0,
			"byteLength":4176,
			"byteOffset":4176,
			"target":34962
		},
		{
			"buffer":0,
			"byteLength":2784,
			"byteOffset":8352,
			"target":34962
		},
		{
			"buffer":0,
			"byteLength":5568,
			"byteOffset":11136,
			"target":34962
		},
		{
			"buffer":0,
			"byteLength":744,
			"byteOffset":16704,
			"target":34963
		}
	],
	"samplers":[
		{
			"magFilter":9729,
			"minFilter":9987
		}
	],
	"buffers":[
		{
			"byteLength":17448,
			"uri":"WoodenBox.bin"
		}
	]
}
