{
	"asset":{
		"generator":"Khronos glTF Blender I/O v5.0.21",
		"version":"2.0"
	},
	"scene":0,
	"scenes":[
		{
			"name":"Scene",
			"nodes":[
				0
			]
		}
	],
	"nodes":[
		{
			"mesh":0,
			"name":"WoodenCrate_S.004"
		}
	],
	"materials":[
		{
			"doubleSided":true,
			"name":"ColorAtlas",
			"pbrMetallicRoughness":{
				"baseColorTexture":{
					"index":0
				},
				"metallicFactor":0,
				"roughnessFactor":0.5
			}
		}
	],
	"meshes":[
		{
			"name":"__EXPORT_MESH__WoodenCrate_S.004",
			"primitives":[
				{
					"attributes":{
						"POSITION":0,
						"NORMAL":1,
						"TEXCOORD_0":2,
						"TANGENT":3
					},
					"indices":4,
					"material":0
				}
			]
		}
	],
	"textures":[
		{
			"sampler":0,
			"source":0
		}
	],
	"images":[
		{
			"mimeType":"image/png",
			"name":"ColorAtlas",
			"uri":"textures/ColorAtlas.png"
		}
	],
	"accessors":[
		{
			"bufferView":0,
			"componentType":5126,
			"count":426,
			"max":[
				0.5179619789123535,
				0.5000001788139343,
				0.32670339941978455
			],
			"min":[
				-0.5179783701896667,
				1.7881389169360773e-07,
				-0.3267033100128174
			],
			"type":"VEC3"
		},
		{
			"bufferView":1,
			"componentType":5126,
			"count":426,
			"type":"VEC3"
		},
		{
			"bufferView":2,
			"componentType":5126,
			"count":426,
			"type":"VEC2"
		},
		{
			"bufferView":3,
			"componentType":5126,
			"count":426,
			"type":"VEC4"
		},
		{
			"bufferView":4,
			"componentType":5123,
			"count":612,
			"type":"SCALAR"
		}
	],
	"bufferViews":[
		{
			"buffer":0,
			"byteLength":5112,
			"byteOffset":0,
			"target":34962
		},
		{
			"buffer":0,
			"byteLength":5112,
			"byteOffset":5112,
			"target":34962
		},
		{
			"buffer":0,
			"byteLength":3408,
			"byteOffset":10224,
			"target":34962
		},
		{
			"buffer":0,
			"byteLength":6816,
			"byteOffset":13632,
			"target":34962
		},
		{
			"buffer":0,
			"byteLength":1224,
			"byteOffset":20448,
			"target":34963
		}
	],
	"samplers":[
		{
			"magFilter":9729,
			"minFilter":9987
		}
	],
	"buffers":[
		{
			"byteLength":21672,
			"uri":"WoodenCrate_S.bin"
		}
	]
}
