{
  "accessors": [
    {
      "bufferView": 2,
      "componentType": 5126,
      "count": 86,
      "max": [
        285.785400390625,
        1128.82373046875,
        315.0
      ],
      "min": [
        -286.2979736328125,
        838.3150634765625,
        140.0
      ],
      "type": "VEC3"
    },
    {
      "bufferView": 2,
      "byteOffset": 1032,
      "componentType": 5126,
      "count": 86,
      "max": [
        1.0,
        1.0,
        0.7448945641517639
      ],
      "min": [
        -1.0,
        -1.0,
        -1.0
      ],
      "type": "VEC3"
    },
    {
      "bufferView": 1,
      "componentType": 5126,
      "count": 86,
      "max": [
        0.6187499761581421,
        0.481673002243042
      ],
      "min": [
        0.38749998807907104,
        0.387688010931015
      ],
      "type": "VEC2"
    },
    {
      "bufferView": 0,
      "componentType": 5125,
      "count": 180,
      "type": "SCALAR"
    },
    {
      "bufferView": 2,
      "byteOffset": 2064,
      "componentType": 5126,
      "count": 33,
      "max": [
        487.34869384765625,
        1681.593017578125,
        455.0
      ],
      "min": [
        280.64990234375,
        1472.6707763671875,
        140.0
      ],
      "type": "VEC3"
    },
    {
      "bufferView": 2,
      "byteOffset": 2460,
      "componentType": 5126,
      "count": 33,
      "max": [
        -0.16171704232692719,
        -0.1511480212211609,
        0.0004869999538641423
      ],
      "min": [
        -0.9885111451148987,
        -0.9868372678756714,
        -0.0010219995165243745
      ],
      "type": "VEC3"
    },
    {
      "bufferView": 0,
      "byteOffset": 720,
      "componentType": 5125,
      "count": 102,
      "type": "SCALAR"
    },
    {
      "bufferView": 2,
      "byteOffset": 2856,
      "componentType": 5126,
      "count": 121,
      "max": [
        119.15559387207031,
        178.7474365234375,
        -0.0
      ],
      "min": [
        -119.15559387207031,
        -178.7474365234375,
        -0.0
      ],
      "type": "VEC3"
    },
    {
      "bufferView": 2,
      "byteOffset": 4308,
      "componentType": 5126,
      "count": 121,
      "max": [
        0.0,
        -0.0,
        1.0
      ],
      "min": [
        0.0,
        -0.0,
        1.0
      ],
      "type": "VEC3"
    },
    {
      "bufferView": 1,
      "byteOffset": 688,
      "componentType": 5126,
      "count": 121,
      "max": [
        1.0,
        1.0
      ],
      "min": [
        0.0,
        0.0
      ],
      "type": "VEC2"
    },
    {
      "bufferView": 0,
      "byteOffset": 1128,
      "componentType": 5125,
      "count": 600,
      "type": "SCALAR"
    },
    {
      "bufferView": 2,
      "byteOffset": 5760,
      "componentType": 5126,
      "count": 9980,
      "max": [
        1264.974609375,
        2684.4189453125,
        1121.171630859375
      ],
      "min": [
        -1264.974609375,
        -113.04507446289063,
        -0.0
      ],
      "type": "VEC3"
    },
    {
      "bufferView": 2,
      "byteOffset": 125520,
      "componentType": 5126,
      "count": 9980,
      "max": [
        1.0,
        1.0,
        1.0
      ],
      "min": [
        -1.0,
        -1.0,
        -1.0
      ],
      "type": "VEC3"
    },
    {
      "bufferView": 1,
      "byteOffset": 1656,
      "componentType": 5126,
      "count": 9980,
      "max": [
        0.65625,
        1.0
      ],
      "min": [
        0.34375,
        -0.0002969999914057553
      ],
      "type": "VEC2"
    },
    {
      "bufferView": 0,
      "byteOffset": 3528,
      "componentType": 5125,
      "count": 24168,
      "type": "SCALAR"
    },
    {
      "bufferView": 2,
      "byteOffset": 245280,
      "componentType": 5126,
      "count": 6499,
      "max": [
        1257.9927978515625,
        2675.59423828125,
        700.0
      ],
      "min": [
        -1251.8638916015625,
        -104.22035217285156,
        -0.9535719752311707
      ],
      "type": "VEC3"
    },
    {
      "bufferView": 2,
      "byteOffset": 323268,
      "componentType": 5126,
      "count": 6499,
      "max": [
        1.0,
        1.0,
        1.0
      ],
      "min": [
        -1.0,
        -1.0,
        -1.0
      ],
      "type": "VEC3"
    },
    {
      "bufferView": 1,
      "byteOffset": 81496,
      "componentType": 5126,
      "count": 6499,
      "max": [
        0.875,
        1.0
      ],
      "min": [
        0.125,
        -0.0
      ],
      "type": "VEC2"
    },
    {
      "bufferView": 0,
      "byteOffset": 100200,
      "componentType": 5125,
      "count": 22260,
      "type": "SCALAR"
    },
    {
      "bufferView": 2,
      "byteOffset": 401256,
      "componentType": 5126,
      "count": 2154,
      "max": [
        1257.9927978515625,
        2675.59423828125,
        976.203857421875
      ],
      "min": [
        -1257.9927978515625,
        -104.22035217285156,
        -0.05453399941325188
      ],
      "type": "VEC3"
    },
    {
      "bufferView": 2,
      "byteOffset": 427104,
      "componentType": 5126,
      "count": 2154,
      "max": [
        1.0,
        1.0,
        1.0
      ],
      "min": [
        -1.0,
        -1.0,
        -1.0
      ],
      "type": "VEC3"
    },
    {
      "bufferView": 1,
      "byteOffset": 133488,
      "componentType": 5126,
      "count": 2154,
      "max": [
        1.0,
        1.0
      ],
      "min": [
        0.0,
        0.0
      ],
      "type": "VEC2"
    },
    {
      "bufferView": 0,
      "byteOffset": 189240,
      "componentType": 5125,
      "count": 8058,
      "type": "SCALAR"
    },
    {
      "bufferView": 2,
      "byteOffset": 452952,
      "componentType": 5126,
      "count": 504,
      "max": [
        718.5513916015625,
        1725.580078125,
        1831.1920166015625
      ],
      "min": [
        -687.814208984375,
        82.24869537353516,
        360.5262451171875
      ],
      "type": "VEC3"
    },
    {
      "bufferView": 2,
      "byteOffset": 459000,
      "componentType": 5126,
      "count": 504,
      "max": [
        1.0,
        1.0,
        1.0
      ],
      "min": [
        -1.0,
        -1.0,
        -1.0
      ],
      "type": "VEC3"
    },
    {
      "bufferView": 1,
      "byteOffset": 150720,
      "componentType": 5126,
      "count": 504,
      "max": [
        0.65625,
        1.0
      ],
      "min": [
        0.34375,
        -0.0
      ],
      "type": "VEC2"
    },
    {
      "bufferView": 0,
      "byteOffset": 221472,
      "componentType": 5125,
      "count": 1440,
      "type": "SCALAR"
    },
    {
      "bufferView": 2,
      "byteOffset": 465048,
      "componentType": 5126,
      "count": 484,
      "max": [
        678.0794067382813,
        1738.30908203125,
        1800.134033203125
      ],
      "min": [
        -519.1497802734375,
        862.601806640625,
        1135.4185791015625
      ],
      "type": "VEC3"
    },
    {
      "bufferView": 2,
      "byteOffset": 470856,
      "componentType": 5126,
      "count": 484,
      "max": [
        0.506733775138855,
        -0.8621025681495667,
        0.0
      ],
      "min": [
        -0.506733775138855,
        -0.9839012622833252,
        0.0
      ],
      "type": "VEC3"
    },
    {
      "bufferView": 1,
      "byteOffset": 154752,
      "componentType": 5126,
      "count": 484,
      "max": [
        1.0,
        0.6666669845581055
      ],
      "min": [
        0.0,
        0.0
      ],
      "type": "VEC2"
    },
    {
      "bufferView": 0,
      "byteOffset": 227232,
      "componentType": 5125,
      "count": 2400,
      "type": "SCALAR"
    },
    {
      "bufferView": 2,
      "byteOffset": 476664,
      "componentType": 5126,
      "count": 174,
      "max": [
        116.70974731445313,
        842.5656127929688,
        229.1626434326172
      ],
      "min": [
        -116.70974731445313,
        159.0704803466797,
        -0.21413399279117584
      ],
      "type": "VEC3"
    },
    {
      "bufferView": 2,
      "byteOffset": 478752,
      "componentType": 5126,
      "count": 174,
      "max": [
        1.0,
        0.9995405077934265,
        0.9987526535987854
      ],
      "min": [
        -1.0,
        -0.9501501321792603,
        -0.3117930293083191
      ],
      "type": "VEC3"
    },
    {
      "bufferView": 1,
      "byteOffset": 158624,
      "componentType": 5126,
      "count": 174,
      "max": [
        0.699999988079071,
        0.5
      ],
      "min": [
        0.0,
        0.0
      ],
      "type": "VEC2"
    },
    {
      "bufferView": 0,
      "byteOffset": 236832,
      "componentType": 5125,
      "count": 444,
      "type": "SCALAR"
    },
    {
      "bufferView": 2,
      "byteOffset": 480840,
      "componentType": 5126,
      "count": 568,
      "max": [
        811.0302124023438,
        2115.884033203125,
        1619.6964111328125
      ],
      "min": [
        -922.1758422851563,
        592.0478515625,
        700.0131225585938
      ],
      "type": "VEC3"
    },
    {
      "bufferView": 2,
      "byteOffset": 487656,
      "componentType": 5126,
      "count": 568,
      "max": [
        0.8359255790710449,
        0.8359261155128479,
        1.0
      ],
      "min": [
        -0.8359261155128479,
        -0.9876887798309326,
        -1.0
      ],
      "type": "VEC3"
    },
    {
      "bufferView": 1,
      "byteOffset": 160016,
      "componentType": 5126,
      "count": 568,
      "max": [
        1.0,
        1.0
      ],
      "min": [
        0.0,
        0.0
      ],
      "type": "VEC2"
    },
    {
      "bufferView": 0,
      "byteOffset": 238608,
      "componentType": 5125,
      "count": 2472,
      "type": "SCALAR"
    },
    {
      "bufferView": 2,
      "byteOffset": 494472,
      "componentType": 5126,
      "count": 131,
      "max": [
        1096.187255859375,
        2418.947509765625,
        578.4182739257813
      ],
      "min": [
        -1096.1876220703125,
        0.0,
        0.0
      ],
      "type": "VEC3"
    },
    {
      "bufferView": 2,
      "byteOffset": 496044,
      "componentType": 5126,
      "count": 131,
      "max": [
        1.0,
        1.0,
        1.0
      ],
      "min": [
        -1.0,
        -1.0,
        -1.0
      ],
      "type": "VEC3"
    },
    {
      "bufferView": 1,
      "byteOffset": 164560,
      "componentType": 5126,
      "count": 131,
      "max": [
        1.0,
        1.0
      ],
      "min": [
        0.0,
        0.0
      ],
      "type": "VEC2"
    },
    {
      "bufferView": 0,
      "byteOffset": 248496,
      "componentType": 5125,
      "count": 390,
      "type": "SCALAR"
    },
    {
      "bufferView": 2,
      "byteOffset": 497616,
      "componentType": 5126,
      "count": 78,
      "max": [
        -514.4826049804688,
        1599.787109375,
        387.7115783691406
      ],
      "min": [
        -919.011962890625,
        1001.6351318359375,
        22.998931884765625
      ],
      "type": "VEC3"
    },
    {
      "bufferView": 2,
      "byteOffset": 498552,
      "componentType": 5126,
      "count": 78,
      "max": [
        1.0,
        1.0,
        1.0
      ],
      "min": [
        -1.0,
        -1.0,
        -1.0
      ],
      "type": "VEC3"
    },
    {
      "bufferView": 1,
      "byteOffset": 165608,
      "componentType": 5126,
      "count": 78,
      "max": [
        0.875,
        1.0
      ],
      "min": [
        0.125,
        0.0
      ],
      "type": "VEC2"
    },
    {
      "bufferView": 0,
      "byteOffset": 250056,
      "componentType": 5125,
      "count": 288,
      "type": "SCALAR"
    },
    {
      "bufferView": 2,
      "byteOffset": 499488,
      "componentType": 5126,
      "count": 242,
      "max": [
        711.197998046875,
        184.1459197998047,
        366.2379150390625
      ],
      "min": [
        -678.448486328125,
        85.50879669189453,
        114.14899444580078
      ],
      "type": "VEC3"
    },
    {
      "bufferView": 2,
      "byteOffset": 502392,
      "componentType": 5126,
      "count": 242,
      "max": [
        0.5812773108482361,
        -0.8103258609771729,
        0.08256803452968597
      ],
      "min": [
        -0.5816770195960999,
        -0.813796877861023,
        -0.0838320255279541
      ],
      "type": "VEC3"
    },
    {
      "bufferView": 1,
      "byteOffset": 166232,
      "componentType": 5126,
      "count": 242,
      "max": [
        0.9979060292243958,
        1.0
      ],
      "min": [
        -0.0013699999544769526,
        0.0
      ],
      "type": "VEC2"
    },
    {
      "bufferView": 0,
      "byteOffset": 251208,
      "componentType": 5125,
      "count": 1200,
      "type": "SCALAR"
    }
  ],
  "asset": {
    "extras": {
      "author": "treymill33 (https://sketchfab.com/treymill33)",
      "license": "CC-BY-4.0 (http://creativecommons.org/licenses/by/4.0/)",
      "source": "https://sketchfab.com/3d-models/low-poly-castle-827e3eae661c48419d2616e2d7739952",
      "title": "Low Poly Castle"
    },
    "generator": "Sketchfab-12.65.0",
    "version": "2.0"
  },
  "bufferViews": [
    {
      "buffer": 0,
      "byteLength": 256008,
      "name": "floatBufferViews",
      "target": 34963
    },
    {
      "buffer": 0,
      "byteLength": 168168,
      "byteOffset": 256008,
      "byteStride": 8,
      "name": "floatBufferViews",
      "target": 34962
    },
    {
      "buffer": 0,
      "byteLength": 505296,
      "byteOffset": 424176,
      "byteStride": 12,
      "name": "floatBufferViews",
      "target": 34962
    }
  ],
  "buffers": [
    {
      "byteLength": 929472,
      "uri": "scene.bin"
    }
  ],
  "extensionsUsed": [
    "KHR_materials_clearcoat"
  ],
  "images": [
    {
      "uri": "textures/lambert6SG_baseColor.png"
    }
  ],
  "materials": [
    {
      "doubleSided": true,
      "extensions": {
        "KHR_materials_clearcoat": {
          "clearcoatFactor": 1.0,
          "clearcoatRoughnessFactor": 0.04
        }
      },
      "name": "blinn2SG",
      "pbrMetallicRoughness": {
        "baseColorFactor": [
          0.4467292081,
          0.4467292081,
          0.4467292081,
          1.0
        ],
        "metallicFactor": 0.0,
        "roughnessFactor": 0.3126905488
      }
    },
    {
      "doubleSided": true,
      "name": "blinn3SG",
      "pbrMetallicRoughness": {
        "baseColorFactor": [
          0.16,
          0.15,
          0.15,
          1.0
        ]
      }
    },
    {
      "doubleSided": true,
      "name": "blinn4SG",
      "pbrMetallicRoughness": {
        "baseColorFactor": [
          0.0,
          0.0,
          0.0,
          1.0
        ],
        "metallicFactor": 0.0
      }
    },
    {
      "doubleSided": true,
      "name": "blinn5SG",
      "pbrMetallicRoughness": {
        "baseColorFactor": [
          0.6795424696,
          0.376262123,
          0.0512694584,
          1.0
        ],
        "metallicFactor": 0.0
      }
    },
    {
      "doubleSided": true,
      "name": "blinn6SG",
      "pbrMetallicRoughness": {
        "baseColorFactor": [
          0.1347365746,
          0.1347365746,
          0.1347365746,
          1.0
        ],
        "metallicFactor": 0.3004954268,
        "roughnessFactor": 0.270007622
      }
    },
    {
      "doubleSided": true,
      "name": "blinn7SG",
      "pbrMetallicRoughness": {
        "baseColorFactor": [
          0.1316312658,
          0.1316312658,
          0.1316312658,
          1.0
        ],
        "metallicFactor": 0.0
      }
    },
    {
      "doubleSided": true,
      "name": "blinn8SG",
      "pbrMetallicRoughness": {
        "baseColorFactor": [
          0.12856811131236873,
          0.12856811131236873,
          0.12856811131236873,
          1.0
        ],
        "metallicFactor": 0.2943978658536585,
        "roughnessFactor": 0.5226753048780488
      }
    },
    {
      "doubleSided": true,
      "name": "initialShadingGroup",
      "pbrMetallicRoughness": {
        "baseColorFactor": [
          0.08767103622559173,
          0.06845779717813935,
          0.06845779717813935,
          1.0
        ],
        "metallicFactor": 0.0
      }
    },
    {
      "doubleSided": true,
      "name": "lambert4SG",
      "pbrMetallicRoughness": {
        "baseColorFactor": [
          0.05,
          0.05,
          0.05,
          1.0
        ],
        "metallicFactor": 0.0
      }
    },
    {
      "doubleSided": true,
      "name": "lambert6SG",
      "pbrMetallicRoughness": {
        "baseColorTexture": {
          "index": 0
        },
        "metallicFactor": 0.0
      }
    }
  ],
  "meshes": [
    {
      "name": "Object_0",
      "primitives": [
        {
          "attributes": {
            "NORMAL": 1,
            "POSITION": 0,
            "TEXCOORD_0": 2
          },
          "indices": 3,
          "material": 0,
          "mode": 4
        }
      ]
    },
    {
      "name": "Object_1",
      "primitives": [
        {
          "attributes": {
            "NORMAL": 5,
            "POSITION": 4
          },
          "indices": 6,
          "material": 0,
          "mode": 4
        }
      ]
    },
    {
      "name": "Object_2",
      "primitives": [
        {
          "attributes": {
            "NORMAL": 8,
            "POSITION": 7,
            "TEXCOORD_0": 9
          },
          "indices": 10,
          "material": 5,
          "mode": 4
        }
      ]
    },
    {
      "name": "Object_3",
      "primitives": [
        {
          "attributes": {
            "NORMAL": 12,
            "POSITION": 11,
            "TEXCOORD_0": 13
          },
          "indices": 14,
          "material": 0,
          "mode": 4
        }
      ]
    },
    {
      "name": "Object_4",
      "primitives": [
        {
          "attributes": {
            "NORMAL": 16,
            "POSITION": 15,
            "TEXCOORD_0": 17
          },
          "indices": 18,
          "material": 0,
          "mode": 4
        }
      ]
    },
    {
      "name": "Object_5",
      "primitives": [
        {
          "attributes": {
            "NORMAL": 20,
            "POSITION": 19,
            "TEXCOORD_0": 21
          },
          "indices": 22,
          "material": 1,
          "mode": 4
        }
      ]
    },
    {
      "name": "Object_6",
      "primitives": [
        {
          "attributes": {
            "NORMAL": 24,
            "POSITION": 23,
            "TEXCOORD_0": 25
          },
          "indices": 26,
          "material": 2,
          "mode": 4
        }
      ]
    },
    {
      "name": "Object_7",
      "primitives": [
        {
          "attributes": {
            "NORMAL": 28,
            "POSITION": 27,
            "TEXCOORD_0": 29
          },
          "indices": 30,
          "material": 3,
          "mode": 4
        }
      ]
    },
    {
      "name": "Object_8",
      "primitives": [
        {
          "attributes": {
            "NORMAL": 32,
            "POSITION": 31,
            "TEXCOORD_0": 33
          },
          "indices": 34,
          "material": 4,
          "mode": 4
        }
      ]
    },
    {
      "name": "Object_9",
      "primitives": [
        {
          "attributes": {
            "NORMAL": 36,
            "POSITION": 35,
            "TEXCOORD_0": 37
          },
          "indices": 38,
          "material": 6,
          "mode": 4
        }
      ]
    },
    {
      "name": "Object_10",
      "primitives": [
        {
          "attributes": {
            "NORMAL": 40,
            "POSITION": 39,
            "TEXCOORD_0": 41
          },
          "indices": 42,
          "material": 7,
          "mode": 4
        }
      ]
    },
    {
      "name": "Object_11",
      "primitives": [
        {
          "attributes": {
            "NORMAL": 44,
            "POSITION": 43,
            "TEXCOORD_0": 45
          },
          "indices": 46,
          "material": 8,
          "mode": 4
        }
      ]
    },
    {
      "name": "Object_12",
      "primitives": [
        {
          "attributes": {
            "NORMAL": 48,
            "POSITION": 47,
            "TEXCOORD_0": 49
          },
          "indices": 50,
          "material": 9,
          "mode": 4
        }
      ]
    }
  ],
  "nodes": [
    {
      "children": [
        1
      ],
      "matrix": [
        1.0,
        0.0,
        0.0,
        0.0,
        0.0,
        3.828568672208042e-16,
        -1.0,
        0.0,
        0.0,
        1.0,
        3.828568672208042e-16,
        0.0,
        0.0,
        -2.27373675443232e-13,
        -2.273736754432321e-13,
        1.0
      ],
      "name": "Sketchfab_model"
    },
    {
      "children": [
        2,
        3,
        4,
        5,
        6,
        7,
        8,
        9,
        10,
        11,
        12,
        13,
        14
      ],
      "name": "Wk05_Castle.obj.cleaner.materialmerger.gles"
    },
    {
      "mesh": 0,
      "name": "Object_2"
    },
    {
      "mesh": 1,
      "name": "Object_3"
    },
    {
      "mesh": 2,
      "name": "Object_4"
    },
    {
      "mesh": 3,
      "name": "Object_5"
    },
    {
      "mesh": 4,
      "name": "Object_6"
    },
    {
      "mesh": 5,
      "name": "Object_7"
    },
    {
      "mesh": 6,
      "name": "Object_8"
    },
    {
      "mesh": 7,
      "name": "Object_9"
    },
    {
      "mesh": 8,
      "name": "Object_10"
    },
    {
      "mesh": 9,
      "name": "Object_11"
    },
    {
      "mesh": 10,
      "name": "Object_12"
    },
    {
      "mesh": 11,
      "name": "Object_13"
    },
    {
      "mesh": 12,
      "name": "Object_14"
    }
  ],
  "samplers": [
    {
      "magFilter": 9729,
      "minFilter": 9987,
      "wrapS": 10497,
      "wrapT": 10497
    }
  ],
  "scene": 0,
  "scenes": [
    {
      "name": "Sketchfab_Scene",
      "nodes": [
        0
      ]
    }
  ],
  "textures": [
    {
      "sampler": 0,
      "source": 0
    }
  ]
}
